<svg height="58" viewBox="0 0 82 58" width="82" xmlns="http://www.w3.org/2000/svg" xmlns:xlink="http://www.w3.org/1999/xlink"><clipPath id="a"><path d="m0 0h82v58h-82z"/></clipPath><g clip-path="url(#a)"><path d="m0 0h82v58h-82z" fill="#fff"/><g stroke-width="2"><g fill="#fff" stroke="#707070" transform="translate(34 2)"><circle cx="7" cy="7" r="7" stroke="none"/><circle cx="7" cy="7" fill="none" r="6"/></g><g fill="#fff" stroke="#707070" transform="translate(50 21)"><circle cx="7" cy="7" r="7" stroke="none"/><circle cx="7" cy="7" fill="none" r="6"/></g><g fill="#fff" stroke="#707070" transform="translate(3 40)"><circle cx="7" cy="7" r="7" stroke="none"/><circle cx="7" cy="7" fill="none" r="6"/></g><g fill="#fff" stroke="#707070" transform="translate(34 40)"><circle cx="7" cy="7" r="7" stroke="none"/><circle cx="7" cy="7" fill="none" r="6"/></g><path d="m0 0 8 9" fill="none" stroke="#707070" transform="translate(13.5 14.5)"/><path d="m0 9 7-9" fill="none" stroke="#707070" transform="translate(15.5 33.5)"/><path d="m0 0h18" fill="none" stroke="#707070" transform="translate(16.5 47.5)"/><path d="m0 0h18" fill="none" stroke="#707070" transform="translate(32.5 28.5)"/><path d="m0 9 7-9" fill="none" stroke="#707070" transform="translate(29.5 13.5)"/><path d="m0 9 8-9" fill="none" stroke="#707070" transform="translate(45.5 33.5)"/><path d="m0 0 8 9" fill="none" stroke="#707070" transform="translate(59.5 33.5)"/><path d="m0 0h18" fill="none" stroke="#707070" transform="translate(47.5 9.5)"/><path d="m0 9 8-9" fill="none" stroke="#707070" transform="translate(61.5 14.5)"/><g fill="#fff" stroke="#3e49c1" transform="translate(3 2)"><circle cx="7" cy="7" r="7" stroke="none"/><circle cx="7" cy="7" fill="none" r="6"/></g><g fill="#fff" stroke="#3e49c1" transform="translate(19 21)"><circle cx="7" cy="7" r="7" stroke="none"/><circle cx="7" cy="7" fill="none" r="6"/></g><g fill="#fff" stroke="#707070" transform="translate(65 40)"><circle cx="7" cy="7" r="7" stroke="none"/><circle cx="7" cy="7" fill="none" r="6"/></g><g fill="#fff" stroke="#3e49c1" transform="translate(65 2)"><circle cx="7" cy="7" r="7" stroke="none"/><circle cx="7" cy="7" fill="none" r="6"/></g></g></g></svg>