<svg xmlns="http://www.w3.org/2000/svg" xmlns:xlink="http://www.w3.org/1999/xlink" width="63" height="58" viewBox="0 0 63 58">
  <defs>
    <clipPath id="clip-clutter-icon">
      <rect width="63" height="58"/>
    </clipPath>
  </defs>
  <g id="clutter-icon" clip-path="url(#clip-clutter-icon)">
    <g id="Ellipse_94" data-name="Ellipse 94" transform="translate(25.097 3.725)" fill="none" stroke="#707070" stroke-width="2">
      <ellipse cx="6.863" cy="6.863" rx="6.863" ry="6.863" stroke="none"/>
      <ellipse cx="6.863" cy="6.863" rx="5.863" ry="5.863" fill="none"/>
    </g>
    <g id="Ellipse_95" data-name="Ellipse 95" transform="translate(45.686 3.725)" fill="none" stroke="#707070" stroke-width="2">
      <ellipse cx="6.863" cy="6.863" rx="6.863" ry="6.863" stroke="none"/>
      <ellipse cx="6.863" cy="6.863" rx="5.863" ry="5.863" fill="none"/>
    </g>
    <g id="Ellipse_96" data-name="Ellipse 96" transform="translate(4.507 22.353)" fill="none" stroke="#707070" stroke-width="2">
      <ellipse cx="6.863" cy="6.863" rx="6.863" ry="6.863" stroke="none"/>
      <ellipse cx="6.863" cy="6.863" rx="5.863" ry="5.863" fill="none"/>
    </g>
    <g id="Ellipse_97" data-name="Ellipse 97" transform="translate(45.686 22.353)" fill="none" stroke="#707070" stroke-width="2">
      <ellipse cx="6.863" cy="6.863" rx="6.863" ry="6.863" stroke="none"/>
      <ellipse cx="6.863" cy="6.863" rx="5.863" ry="5.863" fill="none"/>
    </g>
    <g id="Ellipse_98" data-name="Ellipse 98" transform="translate(4.507 40.982)" fill="none" stroke="#707070" stroke-width="2">
      <ellipse cx="6.863" cy="6.863" rx="6.863" ry="6.863" stroke="none"/>
      <ellipse cx="6.863" cy="6.863" rx="5.863" ry="5.863" fill="none"/>
    </g>
    <g id="Ellipse_99" data-name="Ellipse 99" transform="translate(25.097 40.982)" fill="none" stroke="#707070" stroke-width="2">
      <ellipse cx="6.863" cy="6.863" rx="6.863" ry="6.863" stroke="none"/>
      <ellipse cx="6.863" cy="6.863" rx="5.863" ry="5.863" fill="none"/>
    </g>
    <g id="Ellipse_100" data-name="Ellipse 100" transform="translate(45.686 40.982)" fill="none" stroke="#707070" stroke-width="2">
      <ellipse cx="6.863" cy="6.863" rx="6.863" ry="6.863" stroke="none"/>
      <ellipse cx="6.863" cy="6.863" rx="5.863" ry="5.863" fill="none"/>
    </g>
    <path id="Path_63" data-name="Path 63" d="M6.652,1.973a5.912,5.912,0,0,1,6.1,5.849,5.8,5.8,0,0,1-5.866,5.943A5.779,5.779,0,0,1,1.021,7.623" transform="translate(25.077 20.354)" fill="none" stroke="#707070" stroke-width="2"/>
    <path id="Path_64" data-name="Path 64" d="M5.631,0a5.912,5.912,0,0,1,6.1,5.849,5.8,5.8,0,0,1-5.866,5.943A5.779,5.779,0,0,1,0,5.65" transform="translate(4.315 13.687) rotate(-60)" fill="none" stroke="#707070" stroke-width="2"/>
  </g>
</svg>
