<svg xmlns="http://www.w3.org/2000/svg" xmlns:xlink="http://www.w3.org/1999/xlink" width="82" height="58" viewBox="0 0 82 58">
  <defs>
    <clipPath id="clip-logo">
      <rect width="82" height="58"/>
    </clipPath>
  </defs>
  <g id="logo" clip-path="url(#clip-logo)">
    <rect width="82" height="58" fill="#fff"/>
    <g id="Ellipse_3" data-name="Ellipse 3" transform="translate(34 2)" fill="#fff" stroke="#707070" stroke-width="2">
      <circle cx="7" cy="7" r="7" stroke="none"/>
      <circle cx="7" cy="7" r="6" fill="none"/>
    </g>
    <g id="Ellipse_6" data-name="Ellipse 6" transform="translate(50 21)" fill="#fff" stroke="#707070" stroke-width="2">
      <circle cx="7" cy="7" r="7" stroke="none"/>
      <circle cx="7" cy="7" r="6" fill="none"/>
    </g>
    <g id="Ellipse_7" data-name="Ellipse 7" transform="translate(3 40)" fill="#fff" stroke="#707070" stroke-width="2">
      <circle cx="7" cy="7" r="7" stroke="none"/>
      <circle cx="7" cy="7" r="6" fill="none"/>
    </g>
    <g id="Ellipse_8" data-name="Ellipse 8" transform="translate(34 40)" fill="#fff" stroke="#707070" stroke-width="2">
      <circle cx="7" cy="7" r="7" stroke="none"/>
      <circle cx="7" cy="7" r="6" fill="none"/>
    </g>
    <line id="Line_3" data-name="Line 3" x2="8" y2="9" transform="translate(13.5 14.5)" fill="none" stroke="#707070" stroke-width="2"/>
    <line id="Line_4" data-name="Line 4" y1="9" x2="7" transform="translate(15.5 33.5)" fill="none" stroke="#707070" stroke-width="2"/>
    <line id="Line_5" data-name="Line 5" x2="18" transform="translate(16.5 47.5)" fill="none" stroke="#707070" stroke-width="2"/>
    <line id="Line_6" data-name="Line 6" x2="18" transform="translate(32.5 28.5)" fill="none" stroke="#707070" stroke-width="2"/>
    <line id="Line_7" data-name="Line 7" y1="9" x2="7" transform="translate(29.5 13.5)" fill="none" stroke="#707070" stroke-width="2"/>
    <line id="Line_8" data-name="Line 8" y1="9" x2="8" transform="translate(45.5 33.5)" fill="none" stroke="#707070" stroke-width="2"/>
    <line id="Line_9" data-name="Line 9" x2="8" y2="9" transform="translate(59.5 33.5)" fill="none" stroke="#707070" stroke-width="2"/>
    <line id="Line_10" data-name="Line 10" x2="18" transform="translate(47.5 9.5)" fill="none" stroke="#707070" stroke-width="2"/>
    <line id="Line_11" data-name="Line 11" y1="9" x2="8" transform="translate(61.5 14.5)" fill="none" stroke="#707070" stroke-width="2"/>
    <g id="Ellipse_2" data-name="Ellipse 2" transform="translate(3 2)" fill="#fff" stroke="#3e49c1" stroke-width="2">
      <circle cx="7" cy="7" r="7" stroke="none"/>
      <circle cx="7" cy="7" r="6" fill="none"/>
    </g>
    <g id="Ellipse_5" data-name="Ellipse 5" transform="translate(19 21)" fill="#fff" stroke="#3e49c1" stroke-width="2">
      <circle cx="7" cy="7" r="7" stroke="none"/>
      <circle cx="7" cy="7" r="6" fill="none"/>
    </g>
    <g id="Ellipse_9" data-name="Ellipse 9" transform="translate(65 40)" fill="#fff" stroke="#707070" stroke-width="2">
      <circle cx="7" cy="7" r="7" stroke="none"/>
      <circle cx="7" cy="7" r="6" fill="none"/>
    </g>
    <g id="Ellipse_4" data-name="Ellipse 4" transform="translate(65 2)" fill="#fff" stroke="#3e49c1" stroke-width="2">
      <circle cx="7" cy="7" r="7" stroke="none"/>
      <circle cx="7" cy="7" r="6" fill="none"/>
    </g>
  </g>
</svg>
