<?xml version="1.0" standalone="no"?>
<!DOCTYPE svg PUBLIC "-//W3C//DTD SVG 20010904//EN"
 "http://www.w3.org/TR/2001/REC-SVG-20010904/DTD/svg10.dtd">
<svg version="1.0" xmlns="http://www.w3.org/2000/svg"
 width="550.000000pt" height="550.000000pt" viewBox="0 0 550.000000 550.000000"
 preserveAspectRatio="xMidYMid meet">
<metadata>
Created by potrace 1.11, written by Peter Selinger 2001-2013
</metadata>
<g transform="translate(0.000000,550.000000) scale(0.100000,-0.100000)"
fill="#000000" stroke="none">
<path d="M435 4574 c-165 -43 -295 -163 -349 -323 -22 -65 -25 -90 -22 -171 5
-128 26 -188 100 -287 44 -58 112 -116 173 -147 118 -60 305 -62 425 -6 l38
18 26 -31 c15 -18 53 -61 85 -97 31 -36 66 -74 76 -86 14 -17 106 -119 168
-188 101 -111 155 -175 155 -181 0 -5 -12 -23 -26 -42 -140 -184 -110 -488 65
-646 l38 -34 -96 -110 c-78 -89 -170 -193 -246 -277 -5 -6 -28 -31 -49 -56
-22 -25 -57 -64 -78 -88 l-40 -43 -33 25 c-101 78 -246 108 -386 82 -98 -18
-174 -60 -250 -135 -128 -128 -173 -287 -134 -476 13 -64 71 -160 131 -220 94
-93 163 -124 326 -148 25 -4 69 1 153 17 49 9 149 63 200 108 64 56 121 146
146 230 l21 68 606 -2 c590 -3 605 -3 608 -22 13 -91 57 -170 138 -251 103
-102 208 -146 348 -147 265 -2 490 216 492 476 1 134 -20 211 -85 301 l-31 43
58 74 c33 40 61 75 64 78 6 5 198 242 264 325 17 21 43 52 57 68 l25 30 65
-22 c115 -41 258 -34 370 16 l57 25 47 -51 c25 -27 56 -60 66 -73 11 -12 62
-67 112 -122 51 -54 100 -108 110 -120 31 -35 98 -109 139 -152 l39 -41 -49
-66 c-70 -92 -97 -175 -96 -297 1 -148 43 -249 146 -350 79 -78 176 -126 277
-137 31 -3 63 -7 71 -8 34 -5 168 29 220 55 140 71 248 217 267 363 22 171
-26 317 -144 432 -154 150 -372 183 -571 87 -47 -23 -76 -32 -80 -25 -6 9
-151 170 -202 223 -8 9 -79 85 -156 171 l-142 154 55 59 c104 112 144 262 113
427 -11 56 -51 151 -78 182 -8 9 -11 17 -5 17 9 0 115 117 408 447 127 144
118 137 156 125 114 -37 267 -26 376 25 78 37 181 140 222 222 99 195 62 420
-95 577 -182 183 -482 191 -673 18 -89 -80 -137 -165 -165 -295 l-6 -26 -382
3 c-211 1 -482 3 -603 3 -215 1 -221 2 -222 21 -10 128 -134 300 -263 365 -96
49 -245 66 -355 41 -149 -35 -304 -187 -351 -345 -15 -52 -21 -184 -11 -226 3
-11 8 -33 12 -50 10 -40 52 -122 82 -162 l25 -32 -88 -113 c-49 -62 -149 -189
-223 -283 -74 -93 -135 -171 -136 -173 -1 -1 -38 9 -81 24 -148 49 -314 30
-435 -52 l-53 -36 -41 44 c-22 24 -56 62 -75 83 -19 22 -93 105 -164 185 -135
152 -180 203 -208 236 -17 19 -16 22 36 77 96 104 134 200 134 341 1 146 -42
249 -147 354 -119 118 -304 169 -466 126z m264 -81 c65 -24 98 -45 152 -98 88
-85 127 -179 127 -306 0 -139 -71 -269 -190 -349 -73 -49 -112 -61 -208 -65
-131 -7 -233 30 -319 116 -92 93 -133 196 -126 323 9 191 136 346 320 393 63
16 183 9 244 -14z m2204 -3 c87 -33 184 -117 225 -196 67 -127 59 -310 -18
-426 -99 -149 -259 -219 -431 -190 -91 16 -160 51 -225 116 -84 85 -127 188
-125 301 3 189 116 343 297 404 76 25 196 22 277 -9z m2178 7 c172 -54 291
-221 290 -407 0 -78 -7 -106 -43 -180 -82 -168 -266 -263 -448 -232 -74 13
-97 21 -151 55 -56 35 -72 49 -112 98 -100 124 -120 303 -50 449 31 64 122
159 181 189 96 49 232 61 333 28z m-633 -431 c3 -3 7 -21 9 -38 13 -124 91
-251 211 -345 l22 -18 -37 -41 c-21 -23 -51 -57 -68 -76 -16 -18 -61 -69 -100
-113 -38 -44 -77 -86 -85 -95 -8 -9 -44 -49 -80 -90 -36 -40 -82 -92 -102
-114 l-37 -41 -28 26 c-188 176 -515 159 -689 -35 -79 -88 -134 -212 -134
-303 l0 -33 -573 0 -573 0 -3 46 c-5 106 -55 210 -144 303 l-45 47 105 135
c57 74 117 150 131 169 15 19 67 86 116 148 86 108 90 112 110 97 12 -9 54
-32 95 -52 70 -34 81 -37 180 -39 188 -4 298 45 412 186 66 81 98 165 108 283
1 8 1190 1 1199 -7z m-2573 -936 c215 -106 299 -364 189 -582 -47 -93 -181
-196 -275 -212 -19 -3 -47 -8 -63 -11 -44 -7 -161 12 -209 34 -105 48 -202
158 -234 263 -8 29 -15 84 -15 123 -1 152 63 272 197 364 107 75 283 84 410
21z m2073 25 c66 -17 139 -63 192 -123 75 -83 108 -170 108 -283 0 -127 -41
-221 -133 -308 -209 -198 -546 -134 -672 127 -30 64 -36 86 -38 154 -4 138 29
229 116 319 118 122 252 158 427 114z m-602 -534 c21 -82 70 -164 133 -224
l56 -54 -108 -134 c-60 -74 -123 -152 -140 -173 -18 -22 -36 -44 -42 -50 -5
-6 -37 -45 -70 -86 -33 -41 -69 -85 -80 -98 l-21 -22 -34 26 c-141 105 -359
119 -521 33 -141 -75 -253 -242 -261 -389 l-3 -45 -602 -3 -603 -3 0 38 c0 85
-47 202 -109 276 -20 23 -28 36 -18 28 9 -7 17 -10 17 -5 0 5 20 30 43 55 23
25 72 79 108 120 263 296 352 394 358 394 3 -1 38 -11 76 -24 128 -42 278 -32
394 27 80 40 171 134 214 221 21 41 37 80 37 87 0 7 4 24 9 37 l9 24 573 -1
572 -1 13 -54z m-2667 -812 c186 -59 313 -244 298 -434 -8 -94 -20 -131 -66
-202 -95 -148 -275 -224 -441 -188 -204 44 -346 229 -335 438 4 81 12 112 45
177 30 59 125 151 186 181 92 44 224 56 313 28z m2171 6 c93 -20 198 -94 255
-181 185 -278 -17 -656 -351 -656 -314 0 -521 329 -383 608 88 178 285 272
479 229z m2244 -16 c61 -22 140 -77 178 -124 69 -85 98 -166 99 -275 0 -233
-190 -422 -423 -421 -375 2 -563 447 -303 716 116 120 296 162 449 104z"/>
</g>
</svg>
