<svg id="Laag_1" data-name="Laag 1" xmlns="http://www.w3.org/2000/svg" viewBox="0 0 75.99 54.46"><defs><style>.cls-1{fill:#40509e;}.cls-1,.cls-2{stroke:#40509e;stroke-miterlimit:10;}.cls-2{fill:none;}.cls-3{fill:#c9cbe8;}</style></defs><title>Tekengebied 5</title><ellipse class="cls-1" cx="25.78" cy="26.82" rx="2.81" ry="3.17"/><ellipse class="cls-1" cx="39.44" cy="20.48" rx="3.16" ry="3.17"/><ellipse class="cls-1" cx="39.44" cy="34.3" rx="3.16" ry="3.17"/><polyline class="cls-2" points="39.44 20.48 25.46 26.82 39.44 34.3"/><path class="cls-2" d="M45.26,45.83H6.61a3.94,3.94,0,0,1-3.94-3.94v-31A3.94,3.94,0,0,1,6.61,6.94h51a3.93,3.93,0,0,1,3.94,3.94V25.34"/><polygon class="cls-3" points="54.38 37.08 59.67 40.13 54.38 43.19 54.38 37.08"/><path class="cls-2" d="M61,47.27H46.79a1.45,1.45,0,0,1-1.45-1.45V34.44A1.45,1.45,0,0,1,46.79,33h18.7a1.45,1.45,0,0,1,1.45,1.45v5.31"/></svg>